<?xml version="1.0" encoding="UTF-8" standalone="no"?>
<!-- Created with Inkscape (http://www.inkscape.org/) -->

<svg
   width="512"
   height="512"
   viewBox="0 0 135.46667 135.46667"
   version="1.1"
   id="svg1"
   sodipodi:docname="Chuan_logo.svg"
   inkscape:version="1.4 (86a8ad7, 2024-10-11)"
   xmlns:inkscape="http://www.inkscape.org/namespaces/inkscape"
   xmlns:sodipodi="http://sodipodi.sourceforge.net/DTD/sodipodi-0.dtd"
   xmlns="http://www.w3.org/2000/svg"
   xmlns:svg="http://www.w3.org/2000/svg">
  <sodipodi:namedview
     id="namedview1"
     pagecolor="#ffffff"
     bordercolor="#000000"
     borderopacity="0.25"
     inkscape:showpageshadow="2"
     inkscape:pageopacity="0.0"
     inkscape:pagecheckerboard="0"
     inkscape:deskcolor="#d1d1d1"
     inkscape:document-units="mm"
     showgrid="true"
     showguides="true"
     inkscape:zoom="2"
     inkscape:cx="279.75"
     inkscape:cy="228.75"
     inkscape:window-width="1920"
     inkscape:window-height="991"
     inkscape:window-x="-9"
     inkscape:window-y="-9"
     inkscape:window-maximized="1"
     inkscape:current-layer="layer7">
    <inkscape:grid
       id="grid1"
       units="mm"
       originx="0"
       originy="0"
       spacingx="1"
       spacingy="1"
       empcolor="#0099e5"
       empopacity="0.30196078"
       color="#0099e5"
       opacity="0.14901961"
       empspacing="5"
       enabled="false"
       visible="true" />
    <inkscape:grid
       id="grid2"
       units="px"
       originx="0"
       originy="0"
       spacingx="4.2333336"
       spacingy="4.2333336"
       empcolor="#0099e5"
       empopacity="0.30196078"
       color="#0099e5"
       opacity="0.14901961"
       empspacing="4"
       enabled="true"
       visible="true" />
  </sodipodi:namedview>
  <defs
     id="defs1" />
  <g
     inkscape:groupmode="layer"
     id="layer8"
     inkscape:label="C 圓頭2-1-2 寬22格"
     style="display:inline">
    <path
       id="rect11-4-8-0"
       style="display:inline;fill:#5454d4;fill-opacity:1;stroke:none;stroke-width:0.130256;stroke-opacity:1"
       inkscape:label="C 四角"
       d="m 29.633333,21.166667 a 8.4666567,8.4666567 0 0 0 -8.466666,8.466666 V 38.1 42.333333 50.8 v 33.866667 8.466666 4.233334 8.466663 A 8.4666567,8.4666567 0 0 0 29.633333,114.3 H 33.866667 38.1 42.333333 50.8 84.666667 93.133333 97.366667 101.6 105.83333 A 8.4666567,8.4666567 0 0 0 114.3,105.83333 V 97.366667 93.133333 84.666667 A 8.4666669,8.4666669 0 0 0 105.83333,76.2 H 101.6 a 8.4666669,8.4666669 0 0 0 -8.466667,8.466667 8.4666638,8.4666638 0 0 1 -8.466666,8.466666 H 50.8 A 8.4666638,8.4666638 0 0 1 42.333333,84.666667 V 50.8 A 8.4666638,8.4666638 0 0 1 50.8,42.333333 H 84.666667 A 8.4666638,8.4666638 0 0 1 93.133333,50.8 8.4666669,8.4666669 0 0 0 101.6,59.266667 h 4.23333 A 8.4666669,8.4666669 0 0 0 114.3,50.8 V 42.333333 38.1 33.866667 29.633333 a 8.4666567,8.4666567 0 0 0 -8.46667,-8.466666 H 97.366667 93.133333 84.666667 50.8 42.333333 38.1 33.866667 Z" />
  </g>
  <g
     inkscape:groupmode="layer"
     id="layer7"
     inkscape:label="星星"
     style="display:inline">
    <path
       sodipodi:type="star"
       style="fill:#f4e32a;fill-opacity:1;stroke:none;stroke-width:0.264583;stroke-opacity:1"
       id="path12"
       inkscape:flatsided="false"
       sodipodi:sides="6"
       sodipodi:cx="36.2952"
       sodipodi:cy="33.488873"
       sodipodi:r1="57.487694"
       sodipodi:r2="28.743847"
       sodipodi:arg1="0.52359878"
       sodipodi:arg2="1.0471976"
       inkscape:rounded="0"
       inkscape:randomized="0"
       d="M 86.081003,62.23272 50.667123,58.381775 36.2952,90.976566 21.923276,58.381773 -13.490603,62.232719 7.5513535,33.488871 -13.490603,4.7450254 21.923278,8.5959702 36.295201,-23.998821 50.667125,8.5959716 86.081004,4.7450259 65.039047,33.488874 Z"
       transform="matrix(0.5101856,0,0,0.44183369,49.216045,52.936821)" />
  </g>
  <g
     inkscape:groupmode="layer"
     id="layer5"
     inkscape:label="基礎形狀"
     style="display:none">
    <rect
       style="fill:#ff00ff;fill-opacity:1;stroke:none;stroke-width:0.260513;stroke-opacity:1"
       id="rect11"
       width="16.933332"
       height="16.933332"
       x="16.933334"
       y="16.93334"
       inkscape:label="正方形" />
    <path
       id="rect11-4"
       style="fill:#ffff00;fill-opacity:1;stroke:none;stroke-width:0.130256;stroke-opacity:1"
       d="m 118.53334,4.233335 a 8.4666638,8.4666638 0 0 1 -8.46667,8.466664 h 8.46667 z"
       inkscape:label="四分之一圓反向" />
    <path
       id="rect11-4-8"
       style="display:inline;fill:#5454d4;fill-opacity:1;stroke:none;stroke-width:0.130256;stroke-opacity:1"
       inkscape:label="C 四角"
       d="m 63.500003,71.966669 a 8.4666638,8.4666638 0 0 1 -8.466667,8.466666 v 4.233334 4.233333 4.233333 4.233334 V 101.6 h 8.466667 4.233333 4.233334 4.233333 A 8.4666567,8.4666567 0 0 0 84.66667,93.133335 V 84.666669 80.433335 71.966669 H 80.433336 76.200003 71.96667 67.733336 Z" />
    <path
       style="fill:#00ffff;fill-opacity:1;stroke:none;stroke-width:0.266661;stroke-opacity:1"
       id="path11"
       sodipodi:type="arc"
       sodipodi:cx="101.60001"
       sodipodi:cy="4.2333336"
       sodipodi:rx="8.4666567"
       sodipodi:ry="8.4666567"
       sodipodi:start="0"
       sodipodi:end="1.5707963"
       sodipodi:arc-type="slice"
       d="M 110.06667,4.2333336 A 8.4666567,8.4666567 0 0 1 101.60001,12.69999 V 4.2333336 Z"
       inkscape:label="四分之一圓" />
    <path
       id="rect11-19-0-1-6-4-6-9"
       style="display:inline;fill:#ff00ff;fill-opacity:1;stroke:none;stroke-width:0.130257;stroke-opacity:1"
       inkscape:label="長方形2:1"
       d="m 42.333332,16.933331 v 8.46667 8.46667 h 8.46667 v -8.46667 -8.46667 z" />
    <path
       id="rect11-19-0-1-6-4-6-9-4"
       style="display:inline;fill:#ff00ff;fill-opacity:1;stroke:none;stroke-width:0.130257;stroke-opacity:1"
       inkscape:label="長方形2:1"
       d="m 67.733333,25.4 v 8.466667 H 71.966667 76.2 80.433333 84.666667 88.9 V 25.4 H 84.666667 80.433333 76.2 71.966667 Z" />
    <rect
       style="display:inline;fill:#d7cb47;fill-opacity:1;stroke:none;stroke-width:0.270664;stroke-opacity:1"
       id="rect13-1-5-3"
       width="33.866669"
       height="21.166666"
       x="16.933334"
       y="50.800003"
       inkscape:label="長方形8:5" />
    <path
       id="path11-7-4-9-1-2"
       style="display:inline;fill:#00ffff;fill-opacity:1;stroke:none;stroke-width:0.266661;stroke-opacity:1"
       inkscape:label="圓頭2-1-2"
       d="m 67.733335,42.333335 a 8.4666669,8.4666669 0 0 0 8.466667,8.466667 h 4.233334 a 8.4666669,8.4666669 0 0 0 8.466665,-8.466667 h -8.466665 -4.233334 z" />
  </g>
  <g
     inkscape:groupmode="layer"
     id="layer2"
     inkscape:label="圓形外框"
     style="display:inline">
    <ellipse
       style="display:none;fill:none;stroke:#000000;stroke-width:0.265265;stroke-opacity:1"
       id="path1"
       cx="94.850212"
       cy="13.380857"
       transform="rotate(36.970068)"
       rx="67.733337"
       ry="67.73333"
       inkscape:label="圓形外框" />
  </g>
</svg>
